FILE "Play Fun 12-99 (G) (Track 1) [SLED-02414].bin" BINARY
  TRACK 01 MODE2/2352
    INDEX 01 00:00:00
FILE "Play Fun 12-99 (G) (Track 2) [SLED-02414].bin" BINARY
  TRACK 02 AUDIO
    INDEX 00 00:00:00
    INDEX 01 00:02:00
FILE "Play Fun 12-99 (G) (Track 3) [SLED-02414].bin" BINARY
  TRACK 03 AUDIO
    INDEX 00 00:00:00
    INDEX 01 00:02:00
